<svg xmlns="http://www.w3.org/2000/svg" xmlns:xlink="http://www.w3.org/1999/xlink" width="375" zoomAndPan="magnify" viewBox="0 0 375 374.999991" height="374.999991" preserveAspectRatio="xMidYMid meet" version="1.0"><defs><clipPath id="id1"><path d="M 112.5 112.5 L 262.5 112.5 L 262.5 262.5 L 112.5 262.5 Z M 112.5 112.5 " clip-rule="nonzero"/></clipPath></defs><path fill="rgb(0%, 0%, 0%)" d="M 187.351562 374.699219 C 137.332031 374.699219 90.230469 355.230469 54.886719 319.8125 C 19.46875 284.46875 0 237.371094 0 187.351562 C 0 137.332031 19.46875 90.230469 54.886719 54.886719 C 90.230469 19.46875 137.332031 0 187.351562 0 C 237.371094 0 284.46875 19.46875 319.8125 54.886719 C 355.230469 90.304688 374.699219 137.332031 374.699219 187.351562 C 374.699219 237.371094 355.230469 284.46875 319.8125 319.8125 C 284.46875 355.230469 237.371094 374.699219 187.351562 374.699219 Z M 187.351562 11.230469 C 140.324219 11.230469 96.070312 29.578125 62.824219 62.824219 C 29.578125 96.070312 11.230469 140.324219 11.230469 187.351562 C 11.230469 234.375 29.578125 278.628906 62.824219 311.875 C 96.070312 345.121094 140.324219 363.46875 187.351562 363.46875 C 234.375 363.46875 278.628906 345.121094 311.875 311.875 C 345.121094 278.628906 363.46875 234.375 363.46875 187.351562 C 363.46875 140.324219 345.121094 96.070312 311.875 62.824219 C 278.628906 29.578125 234.375 11.230469 187.351562 11.230469 Z M 187.351562 11.230469 " fill-opacity="1" fill-rule="nonzero"/><g clip-path="url(#id1)"><path fill="rgb(0%, 0%, 0%)" d="M 144.316406 112.5 C 126.773438 112.5 112.5 126.773438 112.5 144.316406 L 112.5 230.683594 C 112.5 248.226562 126.773438 262.5 144.316406 262.5 L 230.683594 262.5 C 248.226562 262.5 262.5 248.226562 262.5 230.683594 L 262.5 144.316406 C 262.5 126.773438 248.226562 112.5 230.683594 112.5 Z M 144.316406 117.046875 L 230.683594 117.046875 C 245.773438 117.046875 257.953125 129.226562 257.953125 144.316406 L 257.953125 230.683594 C 257.953125 245.773438 245.773438 257.953125 230.683594 257.953125 L 144.316406 257.953125 C 129.226562 257.953125 117.046875 245.773438 117.046875 230.683594 L 117.046875 144.316406 C 117.046875 129.226562 129.226562 117.046875 144.316406 117.046875 Z M 151.363281 126.136719 C 137.445312 126.136719 126.136719 137.445312 126.136719 151.363281 L 126.136719 223.636719 C 126.136719 237.554688 137.445312 248.863281 151.363281 248.863281 L 223.636719 248.863281 C 237.554688 248.863281 248.863281 237.554688 248.863281 223.636719 L 248.863281 190.910156 C 248.867188 190.757812 248.839844 190.609375 248.78125 190.46875 C 248.726562 190.328125 248.644531 190.203125 248.535156 190.09375 C 248.429688 189.988281 248.304688 189.902344 248.164062 189.84375 C 248.027344 189.785156 247.878906 189.757812 247.726562 189.757812 C 247.574219 189.757812 247.429688 189.785156 247.289062 189.84375 C 247.148438 189.902344 247.023438 189.988281 246.917969 190.09375 C 246.8125 190.203125 246.730469 190.328125 246.671875 190.46875 C 246.617188 190.609375 246.589844 190.757812 246.589844 190.910156 L 246.589844 223.636719 C 246.589844 236.328125 236.328125 246.589844 223.636719 246.589844 L 151.363281 246.589844 C 138.671875 246.589844 128.410156 236.328125 128.410156 223.636719 L 128.410156 151.363281 C 128.410156 138.671875 138.671875 128.410156 151.363281 128.410156 L 211.363281 128.410156 C 211.515625 128.410156 211.664062 128.382812 211.804688 128.328125 C 211.945312 128.269531 212.070312 128.1875 212.175781 128.082031 C 212.285156 127.976562 212.371094 127.851562 212.429688 127.710938 C 212.488281 127.570312 212.515625 127.425781 212.515625 127.273438 C 212.515625 127.121094 212.488281 126.972656 212.429688 126.835938 C 212.371094 126.695312 212.285156 126.570312 212.175781 126.464844 C 212.070312 126.355469 211.945312 126.273438 211.804688 126.21875 C 211.664062 126.160156 211.515625 126.132812 211.363281 126.136719 Z M 193.730469 155.683594 C 192.535156 155.683594 191.648438 156.261719 191.082031 157.417969 L 169.65625 200.417969 C 169.429688 200.820312 169.316406 201.316406 169.316406 201.894531 C 169.316406 203.414062 170.058594 204.171875 171.53125 204.171875 L 193.210938 204.171875 L 193.210938 217.027344 C 193.210938 217.730469 193.480469 218.292969 194.023438 218.699219 C 194.570312 219.109375 195.234375 219.316406 196.03125 219.316406 C 196.769531 219.316406 197.425781 219.109375 197.992188 218.699219 C 198.5625 218.289062 198.851562 217.730469 198.851562 217.027344 L 198.851562 204.171875 L 203.546875 204.171875 C 204.175781 204.171875 204.683594 203.90625 205.082031 203.375 C 205.480469 202.839844 205.6875 202.207031 205.6875 201.472656 C 205.6875 200.796875 205.496094 200.195312 205.125 199.664062 C 204.757812 199.128906 204.230469 198.859375 203.546875 198.859375 L 198.851562 198.859375 L 198.851562 181.902344 C 198.851562 181.199219 198.566406 180.65625 197.996094 180.277344 C 197.429688 179.894531 196.773438 179.707031 196.035156 179.707031 C 194.160156 179.707031 193.21875 180.4375 193.21875 181.902344 L 193.21875 198.859375 L 176.488281 198.859375 L 196.203125 159.160156 C 196.375 158.757812 196.460938 158.378906 196.460938 158.03125 C 196.460938 157.394531 196.164062 156.84375 195.566406 156.378906 C 194.96875 155.917969 194.355469 155.683594 193.730469 155.683594 Z M 247.710938 162.480469 C 247.558594 162.484375 247.414062 162.515625 247.277344 162.574219 C 247.136719 162.636719 247.015625 162.71875 246.910156 162.828125 C 246.804688 162.9375 246.726562 163.058594 246.671875 163.199219 C 246.613281 163.339844 246.589844 163.484375 246.589844 163.636719 L 246.589844 168.183594 C 246.589844 168.332031 246.617188 168.480469 246.671875 168.621094 C 246.730469 168.761719 246.8125 168.886719 246.917969 168.996094 C 247.023438 169.105469 247.148438 169.1875 247.289062 169.246094 C 247.429688 169.304688 247.574219 169.335938 247.726562 169.335938 C 247.878906 169.335938 248.027344 169.304688 248.164062 169.246094 C 248.304688 169.1875 248.429688 169.105469 248.535156 168.996094 C 248.644531 168.886719 248.726562 168.761719 248.78125 168.621094 C 248.839844 168.480469 248.867188 168.332031 248.863281 168.183594 L 248.863281 163.636719 C 248.867188 163.484375 248.839844 163.335938 248.78125 163.191406 C 248.722656 163.050781 248.640625 162.921875 248.53125 162.816406 C 248.421875 162.707031 248.296875 162.621094 248.152344 162.566406 C 248.011719 162.507812 247.863281 162.480469 247.710938 162.480469 Z M 247.710938 173.847656 C 247.558594 173.847656 247.414062 173.878906 247.277344 173.9375 C 247.136719 174 247.015625 174.082031 246.910156 174.191406 C 246.804688 174.300781 246.726562 174.421875 246.671875 174.5625 C 246.613281 174.703125 246.589844 174.847656 246.589844 175 L 246.589844 184.089844 C 246.589844 184.242188 246.617188 184.390625 246.671875 184.53125 C 246.730469 184.671875 246.8125 184.796875 246.917969 184.90625 C 247.023438 185.011719 247.148438 185.097656 247.289062 185.15625 C 247.429688 185.214844 247.574219 185.242188 247.726562 185.242188 C 247.878906 185.242188 248.027344 185.214844 248.164062 185.15625 C 248.304688 185.097656 248.429688 185.011719 248.535156 184.90625 C 248.644531 184.796875 248.726562 184.671875 248.78125 184.53125 C 248.839844 184.390625 248.867188 184.242188 248.863281 184.089844 L 248.863281 175 C 248.867188 174.847656 248.839844 174.699219 248.78125 174.554688 C 248.722656 174.414062 248.640625 174.289062 248.53125 174.179688 C 248.421875 174.070312 248.296875 173.988281 248.152344 173.929688 C 248.011719 173.871094 247.863281 173.84375 247.710938 173.847656 Z M 247.710938 173.847656 " fill-opacity="1" fill-rule="nonzero"/></g></svg>