<svg xmlns="http://www.w3.org/2000/svg" xmlns:xlink="http://www.w3.org/1999/xlink" width="375" zoomAndPan="magnify" viewBox="0 0 375 374.999991" height="374.999991" preserveAspectRatio="xMidYMid meet" version="1.0"><defs><clipPath id="id1"><path d="M 112.5 112.5 L 262.5 112.5 L 262.5 262.5 L 112.5 262.5 Z M 112.5 112.5 " clip-rule="nonzero"/></clipPath></defs><path fill="rgb(0%, 0%, 0%)" d="M 187.351562 374.699219 C 137.332031 374.699219 90.230469 355.230469 54.886719 319.8125 C 19.46875 284.46875 0 237.371094 0 187.351562 C 0 137.332031 19.46875 90.230469 54.886719 54.886719 C 90.230469 19.46875 137.332031 0 187.351562 0 C 237.371094 0 284.46875 19.46875 319.8125 54.886719 C 355.230469 90.304688 374.699219 137.332031 374.699219 187.351562 C 374.699219 237.371094 355.230469 284.46875 319.8125 319.8125 C 284.46875 355.230469 237.371094 374.699219 187.351562 374.699219 Z M 187.351562 11.230469 C 140.324219 11.230469 96.070312 29.578125 62.824219 62.824219 C 29.578125 96.070312 11.230469 140.324219 11.230469 187.351562 C 11.230469 234.375 29.578125 278.628906 62.824219 311.875 C 96.070312 345.121094 140.324219 363.46875 187.351562 363.46875 C 234.375 363.46875 278.628906 345.121094 311.875 311.875 C 345.121094 278.628906 363.46875 234.375 363.46875 187.351562 C 363.46875 140.324219 345.121094 96.070312 311.875 62.824219 C 278.628906 29.578125 234.375 11.230469 187.351562 11.230469 Z M 187.351562 11.230469 " fill-opacity="1" fill-rule="nonzero"/><g clip-path="url(#id1)"><path fill="rgb(0%, 0%, 0%)" d="M 144.316406 112.5 C 126.773438 112.5 112.5 126.773438 112.5 144.316406 L 112.5 230.683594 C 112.5 248.226562 126.773438 262.5 144.316406 262.5 L 230.683594 262.5 C 248.226562 262.5 262.5 248.226562 262.5 230.683594 L 262.5 144.316406 C 262.5 126.773438 248.226562 112.5 230.683594 112.5 Z M 144.316406 117.046875 L 230.683594 117.046875 C 245.773438 117.046875 257.953125 129.226562 257.953125 144.316406 L 257.953125 230.683594 C 257.953125 245.773438 245.773438 257.953125 230.683594 257.953125 L 144.316406 257.953125 C 129.226562 257.953125 117.046875 245.773438 117.046875 230.683594 L 117.046875 144.316406 C 117.046875 129.226562 129.226562 117.046875 144.316406 117.046875 Z M 150 123.863281 C 135.578125 123.863281 123.863281 135.578125 123.863281 150 L 123.863281 225 C 123.863281 239.421875 135.578125 251.136719 150 251.136719 L 225 251.136719 C 239.421875 251.136719 251.136719 239.421875 251.136719 225 L 251.136719 186.363281 C 251.136719 186.210938 251.113281 186.066406 251.054688 185.921875 C 250.996094 185.78125 250.917969 185.65625 250.808594 185.550781 C 250.703125 185.441406 250.578125 185.355469 250.4375 185.296875 C 250.296875 185.238281 250.152344 185.210938 250 185.210938 C 249.847656 185.210938 249.703125 185.238281 249.5625 185.296875 C 249.421875 185.355469 249.296875 185.441406 249.191406 185.550781 C 249.082031 185.65625 249.003906 185.78125 248.945312 185.921875 C 248.886719 186.066406 248.863281 186.210938 248.863281 186.363281 L 248.863281 225 C 248.863281 238.191406 238.191406 248.863281 225 248.863281 L 150 248.863281 C 136.808594 248.863281 126.136719 238.191406 126.136719 225 L 126.136719 150 C 126.136719 136.808594 136.808594 126.136719 150 126.136719 L 225 126.136719 C 225.722656 126.136719 226.441406 126.179688 227.171875 126.246094 C 227.320312 126.261719 227.46875 126.246094 227.613281 126.199219 C 227.753906 126.15625 227.886719 126.085938 228 125.988281 C 228.117188 125.890625 228.210938 125.777344 228.28125 125.644531 C 228.347656 125.507812 228.390625 125.367188 228.40625 125.21875 C 228.417969 125.066406 228.402344 124.921875 228.359375 124.777344 C 228.3125 124.632812 228.242188 124.503906 228.144531 124.386719 C 228.046875 124.273438 227.933594 124.179688 227.800781 124.109375 C 227.667969 124.039062 227.523438 123.996094 227.375 123.984375 C 226.605469 123.914062 225.816406 123.863281 225 123.863281 Z M 176.234375 155.683594 C 175.195312 155.683594 174.589844 156.402344 174.417969 157.835938 L 172.78125 182.710938 C 172.78125 182.824219 172.75 183.113281 172.691406 183.570312 C 172.632812 184.03125 172.601562 184.316406 172.601562 184.433594 C 172.601562 185.867188 173.585938 186.589844 175.542969 186.589844 L 187.542969 186.589844 C 191.402344 186.589844 194.398438 187.65625 196.527344 189.785156 C 198.65625 191.914062 199.726562 195.109375 199.726562 199.371094 L 199.726562 201.007812 C 199.726562 205.386719 198.660156 208.648438 196.527344 210.808594 C 194.398438 212.96875 191.375 214.050781 187.460938 214.050781 C 183.945312 214.050781 181.039062 213.167969 178.738281 211.414062 C 176.433594 209.65625 175.28125 207.257812 175.28125 204.203125 C 175.28125 202.59375 174.296875 201.785156 172.339844 201.785156 C 170.496094 201.785156 169.578125 202.734375 169.578125 204.632812 C 169.578125 208.78125 171.1875 212.265625 174.414062 215.085938 C 177.636719 217.910156 182.011719 219.316406 187.539062 219.316406 C 192.953125 219.316406 197.285156 217.835938 200.542969 214.875 C 203.792969 211.910156 205.417969 207.292969 205.417969 201.015625 L 205.417969 199.375 C 205.417969 193.214844 203.804688 188.730469 200.582031 185.90625 C 197.359375 183.085938 193.011719 181.671875 187.539062 181.671875 L 178.128906 181.671875 L 179.488281 160.949219 L 200.410156 160.949219 C 201.675781 160.949219 202.308594 160.058594 202.308594 158.273438 C 202.308594 156.546875 201.675781 155.683594 200.410156 155.683594 Z M 249.980469 157.9375 C 249.832031 157.9375 249.6875 157.96875 249.546875 158.03125 C 249.410156 158.089844 249.289062 158.175781 249.183594 158.28125 C 249.078125 158.390625 249 158.515625 248.941406 158.65625 C 248.886719 158.792969 248.859375 158.941406 248.863281 159.089844 L 248.863281 163.636719 C 248.863281 163.789062 248.886719 163.933594 248.945312 164.078125 C 249.003906 164.21875 249.082031 164.34375 249.191406 164.449219 C 249.296875 164.558594 249.421875 164.644531 249.5625 164.703125 C 249.703125 164.761719 249.847656 164.789062 250 164.789062 C 250.152344 164.789062 250.296875 164.761719 250.4375 164.703125 C 250.578125 164.644531 250.703125 164.558594 250.808594 164.449219 C 250.917969 164.34375 250.996094 164.21875 251.054688 164.078125 C 251.113281 163.933594 251.136719 163.789062 251.136719 163.636719 L 251.136719 159.089844 C 251.140625 158.9375 251.109375 158.789062 251.054688 158.644531 C 250.996094 158.503906 250.914062 158.378906 250.804688 158.269531 C 250.695312 158.160156 250.570312 158.078125 250.425781 158.019531 C 250.285156 157.960938 250.136719 157.933594 249.980469 157.9375 Z M 249.980469 169.300781 C 249.832031 169.304688 249.6875 169.332031 249.546875 169.394531 C 249.410156 169.453125 249.289062 169.539062 249.183594 169.644531 C 249.078125 169.753906 249 169.878906 248.941406 170.019531 C 248.886719 170.160156 248.859375 170.304688 248.863281 170.453125 L 248.863281 179.546875 C 248.863281 179.699219 248.886719 179.84375 248.945312 179.984375 C 249.003906 180.125 249.082031 180.25 249.191406 180.359375 C 249.296875 180.46875 249.421875 180.550781 249.5625 180.609375 C 249.703125 180.667969 249.847656 180.699219 250 180.699219 C 250.152344 180.699219 250.296875 180.667969 250.4375 180.609375 C 250.578125 180.550781 250.703125 180.46875 250.808594 180.359375 C 250.917969 180.25 250.996094 180.125 251.054688 179.984375 C 251.113281 179.84375 251.136719 179.699219 251.136719 179.546875 L 251.136719 170.453125 C 251.140625 170.300781 251.109375 170.152344 251.054688 170.011719 C 250.996094 169.867188 250.914062 169.742188 250.804688 169.632812 C 250.695312 169.523438 250.570312 169.441406 250.425781 169.382812 C 250.285156 169.324219 250.136719 169.296875 249.980469 169.300781 Z M 249.980469 169.300781 " fill-opacity="1" fill-rule="nonzero"/></g></svg>