<svg xmlns="http://www.w3.org/2000/svg" xmlns:xlink="http://www.w3.org/1999/xlink" width="375" zoomAndPan="magnify" viewBox="0 0 375 374.999991" height="374.999991" preserveAspectRatio="xMidYMid meet" version="1.0"><defs><clipPath id="id1"><path d="M 62 214 L 129 214 L 129 269.226562 L 62 269.226562 Z M 62 214 " clip-rule="nonzero"/></clipPath><clipPath id="id2"><path d="M 104 73.476562 L 116 73.476562 L 116 144 L 104 144 Z M 104 73.476562 " clip-rule="nonzero"/></clipPath></defs><path fill="rgb(0%, 0%, 0%)" d="M 187.351562 374.699219 C 137.332031 374.699219 90.230469 355.230469 54.886719 319.8125 C 19.46875 284.46875 0 237.371094 0 187.351562 C 0 137.332031 19.46875 90.230469 54.886719 54.886719 C 90.230469 19.46875 137.332031 0 187.351562 0 C 237.371094 0 284.46875 19.46875 319.8125 54.886719 C 355.230469 90.304688 374.699219 137.332031 374.699219 187.351562 C 374.699219 237.371094 355.230469 284.46875 319.8125 319.8125 C 284.46875 355.230469 237.371094 374.699219 187.351562 374.699219 Z M 187.351562 11.230469 C 140.324219 11.230469 96.070312 29.578125 62.824219 62.824219 C 29.578125 96.070312 11.230469 140.324219 11.230469 187.351562 C 11.230469 234.375 29.578125 278.628906 62.824219 311.875 C 96.070312 345.121094 140.324219 363.46875 187.351562 363.46875 C 234.375 363.46875 278.628906 345.121094 311.875 311.875 C 345.121094 278.628906 363.46875 234.375 363.46875 187.351562 C 363.46875 140.324219 345.121094 96.070312 311.875 62.824219 C 278.628906 29.578125 234.375 11.230469 187.351562 11.230469 Z M 187.351562 11.230469 " fill-opacity="1" fill-rule="nonzero"/><path fill="rgb(0%, 0%, 0%)" d="M 230.808594 130.902344 C 197.019531 115.835938 181.164062 127.738281 167.988281 170.886719 C 162.542969 188.71875 119.613281 185.210938 109.605469 191.335938 C 99.300781 197.644531 100.492188 223.402344 126.691406 240.773438 C 150 256.226562 324.828125 239.421875 284.785156 149.558594 C 279.125 136.859375 264.566406 145.957031 230.808594 130.902344 Z M 230.808594 130.902344 " fill-opacity="1" fill-rule="nonzero"/><path fill="rgb(0%, 0%, 0%)" d="M 158.316406 249.8125 C 158.3125 249.8125 158.308594 249.8125 158.304688 249.8125 C 148.921875 249.8125 132.054688 249.066406 124.515625 244.066406 C 105.867188 231.703125 99.4375 215.421875 99.636719 204.304688 C 99.769531 196.917969 102.65625 190.964844 107.550781 187.964844 C 111.738281 185.40625 119.109375 184.445312 128.445312 183.230469 C 142.355469 181.421875 161.40625 178.945312 164.21875 169.730469 C 169.386719 152.804688 174.75 141.300781 181.089844 133.527344 C 188.109375 124.914062 196.523438 120.730469 206.800781 120.730469 C 214.128906 120.730469 222.503906 122.878906 232.410156 127.292969 C 248.191406 134.332031 259.621094 135.917969 267.964844 137.074219 C 277.238281 138.359375 284.5625 139.375 288.382812 147.949219 C 297.335938 168.039062 296.742188 186.15625 286.621094 201.796875 C 263.824219 237.027344 197.40625 249.8125 158.316406 249.8125 Z M 206.800781 128.632812 C 191.324219 128.632812 181.171875 141.207031 171.757812 172.042969 C 167.457031 186.125 146.386719 188.863281 129.460938 191.066406 C 122.0625 192.027344 114.414062 193.023438 111.660156 194.707031 C 109.148438 196.246094 107.597656 199.886719 107.519531 204.449219 C 107.355469 213.464844 112.878906 226.878906 128.863281 237.476562 C 132.097656 239.621094 141.527344 241.910156 158.304688 241.914062 C 158.304688 241.914062 158.3125 241.914062 158.316406 241.914062 C 195.683594 241.914062 258.917969 230.085938 280.007812 197.496094 C 288.582031 184.25 288.980469 168.660156 281.183594 151.171875 C 279.242188 146.808594 276.203125 146.191406 266.886719 144.898438 C 258.074219 143.679688 246.007812 142.003906 229.207031 134.511719 C 220.328125 130.554688 213 128.632812 206.800781 128.632812 Z M 206.800781 128.632812 " fill-opacity="1" fill-rule="nonzero"/><path fill="rgb(100%, 100%, 100%)" d="M 230.808594 104.457031 C 197.019531 89.390625 181.164062 101.289062 167.988281 144.441406 C 162.542969 162.269531 129.933594 169.328125 119.925781 175.453125 C 109.621094 181.761719 100.492188 196.957031 126.691406 214.324219 C 156.351562 233.988281 388.441406 174.742188 230.808594 104.457031 Z M 230.808594 104.457031 " fill-opacity="1" fill-rule="nonzero"/><path fill="rgb(0%, 0%, 0%)" d="M 147.683594 222.09375 C 147.679688 222.09375 147.679688 222.09375 147.679688 222.09375 C 136.785156 222.09375 128.992188 220.589844 124.515625 217.621094 C 111.84375 209.21875 105.503906 200.28125 105.667969 191.054688 C 105.800781 183.773438 110.363281 176.679688 117.875 172.082031 C 120.878906 170.242188 125.390625 168.460938 130.613281 166.394531 C 143.355469 161.359375 160.808594 154.460938 164.222656 143.285156 C 169.390625 126.355469 174.75 114.851562 181.089844 107.078125 C 188.113281 98.46875 196.523438 94.285156 206.804688 94.285156 C 214.128906 94.285156 222.507812 96.429688 232.410156 100.847656 C 274 119.390625 292.890625 139.148438 288.5625 159.574219 C 283.984375 181.171875 254.707031 196.328125 230.953125 205.238281 C 203.660156 215.480469 170.972656 222.09375 147.683594 222.09375 Z M 206.800781 102.183594 C 191.324219 102.183594 181.171875 114.761719 171.757812 145.597656 C 167.230469 160.414062 147.738281 168.121094 133.503906 173.746094 C 128.621094 175.675781 124.402344 177.34375 121.980469 178.824219 C 120.03125 180.015625 113.671875 184.433594 113.546875 191.195312 C 113.433594 197.453125 118.730469 204.3125 128.863281 211.03125 C 130.644531 212.210938 135.457031 214.195312 147.675781 214.195312 C 147.679688 214.195312 147.679688 214.195312 147.683594 214.195312 C 169.761719 214.195312 202.113281 207.625 228.1875 197.84375 C 258.707031 186.394531 277.902344 171.847656 280.851562 157.933594 C 284.25 141.890625 266.390625 124.648438 229.207031 108.066406 C 220.328125 104.109375 213 102.183594 206.800781 102.183594 Z M 206.800781 102.183594 " fill-opacity="1" fill-rule="nonzero"/><path fill="rgb(100%, 100%, 100%)" d="M 147.679688 201.128906 C 139.707031 201.128906 136.414062 200.148438 135.695312 199.894531 C 129.46875 195.707031 127.414062 192.761719 126.796875 191.609375 C 127.167969 191.171875 127.824219 190.558594 128.777344 189.972656 C 130.234375 189.082031 134.699219 187.316406 138.285156 185.898438 C 154.042969 179.667969 177.859375 170.257812 184.222656 149.417969 C 194.65625 115.25 203.164062 115.25 206.800781 115.25 C 211.078125 115.25 216.832031 116.847656 223.90625 120.003906 C 261.164062 136.613281 269.214844 149.953125 268.101562 155.214844 C 266.53125 162.625 252.167969 174.894531 223.621094 185.605469 C 198.867188 194.890625 168.351562 201.128906 147.683594 201.128906 Z M 147.679688 201.128906 " fill-opacity="1" fill-rule="nonzero"/><path fill="rgb(0%, 0%, 0%)" d="M 147.683594 205.078125 L 147.679688 205.078125 C 139.417969 205.078125 135.632812 204.058594 134.386719 203.621094 C 134.074219 203.511719 133.777344 203.359375 133.5 203.175781 C 127.082031 198.859375 124.425781 195.523438 123.328125 193.484375 C 122.554688 192.050781 122.742188 190.289062 123.796875 189.046875 C 124.324219 188.425781 125.261719 187.496094 126.726562 186.601562 C 128.347656 185.605469 131.941406 184.160156 136.839844 182.222656 C 151.898438 176.269531 174.644531 167.277344 180.453125 148.261719 C 190.398438 115.691406 199.355469 111.296875 206.804688 111.296875 C 211.632812 111.296875 217.925781 113.011719 225.507812 116.394531 C 272.007812 137.125 272.816406 151.976562 271.957031 156.039062 C 269.734375 166.523438 251.742188 179.273438 225.003906 189.304688 C 199.851562 198.742188 168.777344 205.078125 147.683594 205.078125 Z M 137.410156 196.289062 C 138.4375 196.554688 141.488281 197.179688 147.679688 197.179688 L 147.683594 201.128906 L 147.683594 197.179688 C 167.925781 197.179688 197.886719 191.042969 222.238281 181.90625 C 251.074219 171.089844 263.160156 159.53125 264.246094 154.398438 C 264.738281 152.066406 259.070312 140.007812 222.304688 123.613281 C 214.125 119.964844 209.359375 119.199219 206.804688 119.199219 C 205.34375 119.199219 203.6875 119.199219 200.972656 122.183594 C 196.667969 126.917969 192.296875 136.46875 187.992188 150.578125 C 181.074219 173.234375 156.199219 183.066406 139.738281 189.574219 C 137.667969 190.390625 134.605469 191.601562 132.601562 192.484375 C 133.679688 193.507812 135.222656 194.785156 137.410156 196.289062 Z M 137.410156 196.289062 " fill-opacity="1" fill-rule="nonzero"/><path fill="rgb(100%, 100%, 100%)" d="M 119.378906 218.144531 L 88.765625 231.890625 C 87.632812 228.941406 85.316406 226.46875 82.140625 225.253906 C 76.203125 222.984375 69.554688 225.96875 67.289062 231.921875 C 65.027344 237.871094 68.003906 244.535156 73.941406 246.804688 C 74.535156 247.03125 75.136719 247.191406 75.734375 247.316406 C 75.253906 248.035156 74.835938 248.808594 74.515625 249.652344 C 72.25 255.601562 75.230469 262.265625 81.167969 264.535156 C 87.105469 266.804688 93.753906 263.820312 96.015625 257.867188 C 96.863281 255.640625 96.976562 253.316406 96.472656 251.15625 C 96.472656 251.15625 138.175781 229.5 119.378906 218.144531 Z M 119.378906 218.144531 " fill-opacity="1" fill-rule="nonzero"/><g clip-path="url(#id1)"><path fill="rgb(0%, 0%, 0%)" d="M 85.265625 269.246094 C 85.261719 269.246094 85.265625 269.246094 85.265625 269.246094 C 83.382812 269.246094 81.53125 268.902344 79.765625 268.226562 C 75.910156 266.753906 72.855469 263.863281 71.167969 260.089844 C 69.660156 256.71875 69.402344 253.003906 70.414062 249.492188 C 63.898438 245.789062 60.859375 237.746094 63.605469 230.515625 C 65.875 224.550781 71.679688 220.542969 78.046875 220.542969 C 79.925781 220.542969 81.773438 220.886719 83.542969 221.5625 C 86.3125 222.621094 88.699219 224.457031 90.4375 226.8125 L 117.769531 214.539062 C 118.949219 214.011719 120.308594 214.09375 121.414062 214.761719 C 127.1875 218.25 128.28125 222.589844 128.183594 225.617188 C 127.8125 237.195312 108.558594 249.019531 100.710938 253.363281 C 100.765625 255.367188 100.425781 257.371094 99.699219 259.277344 C 97.429688 265.238281 91.628906 269.246094 85.265625 269.246094 Z M 78.042969 228.445312 C 74.925781 228.445312 72.082031 230.40625 70.96875 233.328125 C 69.488281 237.234375 71.449219 241.625 75.347656 243.113281 C 75.683594 243.242188 76.070312 243.351562 76.53125 243.445312 C 77.820312 243.714844 78.886719 244.605469 79.382812 245.824219 C 79.882812 247.042969 79.738281 248.429688 79.007812 249.519531 C 78.660156 250.039062 78.394531 250.542969 78.199219 251.058594 C 77.476562 252.953125 77.535156 255.011719 78.363281 256.859375 C 79.1875 258.707031 80.683594 260.121094 82.574219 260.84375 C 83.441406 261.175781 84.347656 261.34375 85.265625 261.34375 C 88.382812 261.34375 91.222656 259.382812 92.332031 256.460938 C 92.875 255.042969 92.976562 253.519531 92.636719 252.054688 C 92.226562 250.296875 93.0625 248.480469 94.660156 247.648438 C 105.1875 242.175781 120.105469 231.640625 120.304688 225.359375 C 120.320312 224.933594 120.351562 223.953125 118.929688 222.675781 L 90.378906 235.496094 C 89.390625 235.9375 88.265625 235.957031 87.265625 235.542969 C 86.265625 235.128906 85.476562 234.320312 85.089844 233.308594 C 84.304688 231.265625 82.757812 229.714844 80.734375 228.941406 C 79.867188 228.613281 78.960938 228.445312 78.042969 228.445312 Z M 78.042969 228.445312 " fill-opacity="1" fill-rule="nonzero"/></g><path fill="rgb(0%, 0%, 0%)" d="M 222.894531 144.679688 C 222.296875 144.679688 221.6875 144.542969 221.117188 144.253906 L 192.1875 129.570312 C 190.246094 128.585938 189.46875 126.207031 190.453125 124.261719 C 191.4375 122.316406 193.804688 121.535156 195.75 122.523438 L 224.679688 137.207031 C 226.621094 138.191406 227.398438 140.570312 226.414062 142.515625 C 225.71875 143.886719 224.332031 144.679688 222.894531 144.679688 Z M 222.894531 144.679688 " fill-opacity="1" fill-rule="nonzero"/><path fill="rgb(0%, 0%, 0%)" d="M 232.195312 171.847656 C 231.59375 171.847656 230.988281 171.710938 230.417969 171.421875 L 185.941406 148.847656 C 184 147.859375 183.226562 145.484375 184.207031 143.539062 C 185.191406 141.589844 187.5625 140.8125 189.503906 141.796875 L 233.980469 164.371094 C 235.921875 165.359375 236.699219 167.734375 235.714844 169.683594 C 235.019531 171.054688 233.632812 171.847656 232.195312 171.847656 Z M 232.195312 171.847656 " fill-opacity="1" fill-rule="nonzero"/><path fill="rgb(0%, 0%, 0%)" d="M 136.578125 143.097656 C 134.402344 143.097656 132.636719 141.332031 132.636719 139.148438 C 132.636719 134.425781 133.816406 131.851562 134.765625 129.785156 C 135.582031 128 136.175781 126.710938 136.175781 123.714844 C 136.175781 120.71875 135.582031 119.429688 134.765625 117.644531 C 133.816406 115.574219 132.636719 113 132.636719 108.277344 C 132.636719 106.09375 134.402344 104.324219 136.578125 104.324219 C 138.753906 104.324219 140.519531 106.09375 140.519531 108.277344 C 140.519531 111.269531 141.109375 112.5625 141.925781 114.34375 C 142.875 116.414062 144.054688 118.988281 144.054688 123.714844 C 144.054688 128.4375 142.875 131.011719 141.925781 133.082031 C 141.109375 134.863281 140.519531 136.15625 140.519531 139.148438 C 140.519531 141.332031 138.753906 143.097656 136.578125 143.097656 Z M 136.578125 143.097656 " fill-opacity="1" fill-rule="nonzero"/><g clip-path="url(#id2)"><path fill="rgb(0%, 0%, 0%)" d="M 108.382812 143.097656 C 106.203125 143.097656 104.441406 141.332031 104.441406 139.148438 C 104.441406 134.425781 105.621094 131.851562 106.566406 129.785156 C 107.386719 128 107.976562 126.710938 107.976562 123.714844 C 107.976562 120.714844 107.382812 119.429688 106.566406 117.640625 C 105.621094 115.574219 104.441406 113 104.441406 108.277344 C 104.441406 103.554688 105.621094 100.980469 106.566406 98.910156 C 107.386719 97.125 107.976562 95.835938 107.976562 92.839844 C 107.976562 89.84375 107.382812 88.554688 106.566406 86.769531 C 105.621094 84.699219 104.441406 82.125 104.441406 77.402344 C 104.441406 75.222656 106.203125 73.453125 108.382812 73.453125 C 110.558594 73.453125 112.324219 75.222656 112.324219 77.402344 C 112.324219 80.398438 112.914062 81.6875 113.730469 83.472656 C 114.679688 85.542969 115.859375 88.117188 115.859375 92.839844 C 115.859375 97.5625 114.679688 100.136719 113.730469 102.207031 C 112.914062 103.992188 112.324219 105.28125 112.324219 108.277344 C 112.324219 111.273438 112.914062 112.5625 113.730469 114.347656 C 114.679688 116.414062 115.859375 118.992188 115.859375 123.714844 C 115.859375 128.4375 114.679688 131.011719 113.730469 133.082031 C 112.914062 134.863281 112.324219 136.152344 112.324219 139.148438 C 112.324219 141.332031 110.558594 143.097656 108.382812 143.097656 Z M 108.382812 143.097656 " fill-opacity="1" fill-rule="nonzero"/></g></svg>