<svg xmlns="http://www.w3.org/2000/svg" xmlns:xlink="http://www.w3.org/1999/xlink" width="375" zoomAndPan="magnify" viewBox="0 0 375 374.999991" height="374.999991" preserveAspectRatio="xMidYMid meet" version="1.0"><defs><clipPath id="id1"><path d="M 85.226562 38 L 289.976562 38 L 289.976562 310.5 L 85.226562 310.5 Z M 85.226562 38 " clip-rule="nonzero"/></clipPath></defs><path fill="rgb(0%, 0%, 0%)" d="M 187.351562 374.699219 C 137.332031 374.699219 90.230469 355.230469 54.886719 319.8125 C 19.46875 284.46875 0 237.371094 0 187.351562 C 0 137.332031 19.46875 90.230469 54.886719 54.886719 C 90.230469 19.46875 137.332031 0 187.351562 0 C 237.371094 0 284.46875 19.46875 319.8125 54.886719 C 355.230469 90.304688 374.699219 137.332031 374.699219 187.351562 C 374.699219 237.371094 355.230469 284.46875 319.8125 319.8125 C 284.46875 355.230469 237.371094 374.699219 187.351562 374.699219 Z M 187.351562 11.230469 C 140.324219 11.230469 96.070312 29.578125 62.824219 62.824219 C 29.578125 96.070312 11.230469 140.324219 11.230469 187.351562 C 11.230469 234.375 29.578125 278.628906 62.824219 311.875 C 96.070312 345.121094 140.324219 363.46875 187.351562 363.46875 C 234.375 363.46875 278.628906 345.121094 311.875 311.875 C 345.121094 278.628906 363.46875 234.375 363.46875 187.351562 C 363.46875 140.324219 345.121094 96.070312 311.875 62.824219 C 278.628906 29.578125 234.375 11.230469 187.351562 11.230469 Z M 187.351562 11.230469 " fill-opacity="1" fill-rule="nonzero"/><g clip-path="url(#id1)"><path fill="rgb(0%, 0%, 0%)" d="M 284.089844 299.148438 L 193.277344 299.148438 L 193.277344 222.039062 L 219.992188 195.324219 C 220.25 195.058594 220.476562 194.769531 220.675781 194.460938 C 220.878906 194.152344 221.046875 193.828125 221.183594 193.484375 C 221.320312 193.140625 221.421875 192.789062 221.488281 192.425781 C 221.558594 192.066406 221.589844 191.699219 221.585938 191.332031 C 221.582031 190.960938 221.542969 190.597656 221.46875 190.238281 C 221.394531 189.875 221.289062 189.527344 221.144531 189.1875 C 221.003906 188.847656 220.828125 188.523438 220.625 188.21875 C 220.417969 187.910156 220.183594 187.628906 219.925781 187.367188 C 219.664062 187.105469 219.378906 186.875 219.074219 186.667969 C 218.769531 186.464844 218.445312 186.289062 218.105469 186.144531 C 217.765625 186.003906 217.414062 185.894531 217.054688 185.820312 C 216.695312 185.746094 216.328125 185.707031 215.960938 185.707031 C 215.589844 185.703125 215.226562 185.734375 214.863281 185.800781 C 214.5 185.871094 214.148438 185.972656 213.808594 186.109375 C 213.464844 186.246094 213.140625 186.414062 212.828125 186.613281 C 212.519531 186.8125 212.234375 187.042969 211.96875 187.296875 L 193.277344 205.988281 L 193.277344 153.929688 L 219.992188 127.214844 C 220.25 126.949219 220.476562 126.664062 220.675781 126.355469 C 220.878906 126.042969 221.046875 125.71875 221.183594 125.375 C 221.320312 125.035156 221.421875 124.679688 221.488281 124.320312 C 221.558594 123.957031 221.589844 123.589844 221.585938 123.222656 C 221.582031 122.855469 221.542969 122.488281 221.46875 122.128906 C 221.394531 121.769531 221.289062 121.417969 221.144531 121.078125 C 221.003906 120.738281 220.828125 120.414062 220.625 120.109375 C 220.417969 119.804688 220.183594 119.519531 219.925781 119.257812 C 219.664062 119 219.378906 118.765625 219.074219 118.558594 C 218.769531 118.355469 218.445312 118.179688 218.105469 118.039062 C 217.765625 117.894531 217.414062 117.789062 217.054688 117.714844 C 216.695312 117.640625 216.328125 117.601562 215.960938 117.597656 C 215.589844 117.59375 215.226562 117.625 214.863281 117.695312 C 214.503906 117.761719 214.148438 117.863281 213.808594 118 C 213.464844 118.136719 213.140625 118.304688 212.828125 118.507812 C 212.519531 118.707031 212.234375 118.933594 211.96875 119.191406 L 193.277344 137.878906 L 193.277344 89.148438 C 193.277344 88.777344 193.242188 88.40625 193.167969 88.042969 C 193.097656 87.675781 192.988281 87.320312 192.847656 86.976562 C 192.703125 86.632812 192.527344 86.304688 192.320312 85.996094 C 192.113281 85.683594 191.878906 85.398438 191.617188 85.136719 C 191.351562 84.871094 191.066406 84.636719 190.753906 84.429688 C 190.445312 84.222656 190.117188 84.046875 189.773438 83.90625 C 189.429688 83.761719 189.074219 83.65625 188.710938 83.582031 C 188.34375 83.507812 187.976562 83.472656 187.601562 83.472656 C 187.230469 83.472656 186.859375 83.507812 186.496094 83.582031 C 186.128906 83.65625 185.773438 83.761719 185.429688 83.90625 C 185.085938 84.046875 184.757812 84.222656 184.449219 84.429688 C 184.140625 84.636719 183.851562 84.871094 183.589844 85.136719 C 183.324219 85.398438 183.089844 85.683594 182.882812 85.996094 C 182.675781 86.304688 182.5 86.632812 182.359375 86.976562 C 182.214844 87.320312 182.109375 87.675781 182.035156 88.042969 C 181.964844 88.40625 181.925781 88.777344 181.925781 89.148438 L 181.925781 137.878906 L 163.238281 119.191406 C 162.972656 118.933594 162.683594 118.707031 162.375 118.507812 C 162.066406 118.304688 161.738281 118.136719 161.398438 118 C 161.054688 117.863281 160.703125 117.761719 160.339844 117.695312 C 159.976562 117.625 159.613281 117.59375 159.246094 117.597656 C 158.875 117.601562 158.511719 117.640625 158.148438 117.714844 C 157.789062 117.789062 157.4375 117.894531 157.097656 118.039062 C 156.757812 118.179688 156.4375 118.355469 156.128906 118.558594 C 155.824219 118.765625 155.539062 119 155.28125 119.257812 C 155.019531 119.519531 154.785156 119.804688 154.582031 120.109375 C 154.375 120.414062 154.203125 120.738281 154.058594 121.078125 C 153.917969 121.417969 153.808594 121.769531 153.734375 122.128906 C 153.660156 122.488281 153.621094 122.855469 153.617188 123.222656 C 153.613281 123.589844 153.648438 123.957031 153.714844 124.320312 C 153.785156 124.679688 153.886719 125.035156 154.023438 125.375 C 154.160156 125.71875 154.328125 126.042969 154.527344 126.355469 C 154.726562 126.664062 154.957031 126.949219 155.210938 127.214844 L 181.925781 153.929688 L 181.925781 205.988281 L 163.238281 187.296875 C 162.972656 187.042969 162.683594 186.8125 162.375 186.613281 C 162.066406 186.414062 161.738281 186.246094 161.398438 186.109375 C 161.054688 185.972656 160.703125 185.871094 160.339844 185.800781 C 159.976562 185.734375 159.613281 185.703125 159.246094 185.707031 C 158.875 185.707031 158.511719 185.746094 158.148438 185.820312 C 157.789062 185.894531 157.4375 186.003906 157.097656 186.148438 C 156.757812 186.289062 156.4375 186.464844 156.128906 186.667969 C 155.824219 186.875 155.539062 187.105469 155.28125 187.367188 C 155.019531 187.628906 154.785156 187.910156 154.582031 188.21875 C 154.375 188.523438 154.203125 188.847656 154.058594 189.1875 C 153.917969 189.527344 153.808594 189.875 153.734375 190.238281 C 153.660156 190.597656 153.621094 190.960938 153.617188 191.332031 C 153.613281 191.699219 153.648438 192.066406 153.714844 192.425781 C 153.785156 192.789062 153.886719 193.140625 154.023438 193.484375 C 154.160156 193.828125 154.328125 194.152344 154.527344 194.460938 C 154.726562 194.769531 154.957031 195.058594 155.210938 195.324219 L 181.925781 222.039062 L 181.925781 242.273438 C 129.710938 241.046875 108.144531 222.765625 108.144531 179.960938 C 108.144531 133.375 171.144531 67.945312 187.601562 51.6875 C 204.0625 67.945312 267.0625 133.375 267.0625 179.960938 C 267.0625 217.933594 249.363281 236.851562 209.675781 241.289062 C 209.304688 241.332031 208.941406 241.410156 208.585938 241.519531 C 208.230469 241.632812 207.890625 241.78125 207.5625 241.960938 C 207.234375 242.140625 206.929688 242.351562 206.644531 242.589844 C 206.359375 242.832031 206.097656 243.097656 205.867188 243.386719 C 205.632812 243.679688 205.429688 243.988281 205.257812 244.320312 C 205.089844 244.652344 204.949219 244.996094 204.847656 245.355469 C 204.742188 245.714844 204.675781 246.078125 204.644531 246.449219 C 204.613281 246.820312 204.617188 247.191406 204.65625 247.5625 C 204.699219 247.933594 204.777344 248.296875 204.890625 248.652344 C 205.003906 249.007812 205.148438 249.347656 205.328125 249.675781 C 205.507812 250 205.71875 250.308594 205.960938 250.59375 C 206.199219 250.878906 206.464844 251.136719 206.757812 251.371094 C 207.050781 251.601562 207.359375 251.804688 207.691406 251.976562 C 208.023438 252.148438 208.367188 252.285156 208.726562 252.386719 C 209.085938 252.492188 209.449219 252.558594 209.820312 252.589844 C 210.191406 252.621094 210.5625 252.617188 210.933594 252.574219 C 256.339844 247.5 278.414062 223.746094 278.414062 179.960938 C 278.414062 121.742188 195.039062 42.925781 191.484375 39.605469 C 191.222656 39.359375 190.941406 39.144531 190.640625 38.953125 C 190.339844 38.761719 190.023438 38.597656 189.691406 38.46875 C 189.355469 38.335938 189.015625 38.238281 188.664062 38.171875 C 188.3125 38.105469 187.960938 38.070312 187.601562 38.070312 C 187.246094 38.070312 186.890625 38.105469 186.539062 38.171875 C 186.1875 38.238281 185.847656 38.335938 185.515625 38.46875 C 185.183594 38.597656 184.867188 38.761719 184.5625 38.953125 C 184.261719 39.144531 183.980469 39.359375 183.71875 39.605469 C 180.167969 42.925781 96.792969 121.742188 96.792969 179.960938 C 96.792969 242.449219 141.101562 252.875 181.925781 253.679688 L 181.925781 299.148438 L 91.117188 299.148438 C 90.742188 299.148438 90.375 299.183594 90.007812 299.257812 C 89.644531 299.332031 89.289062 299.4375 88.945312 299.582031 C 88.597656 299.722656 88.273438 299.898438 87.960938 300.105469 C 87.652344 300.3125 87.367188 300.546875 87.101562 300.8125 C 86.839844 301.074219 86.605469 301.359375 86.398438 301.671875 C 86.191406 301.980469 86.015625 302.308594 85.871094 302.652344 C 85.730469 302.996094 85.621094 303.351562 85.550781 303.71875 C 85.476562 304.082031 85.441406 304.453125 85.441406 304.824219 C 85.441406 305.195312 85.476562 305.566406 85.550781 305.929688 C 85.621094 306.296875 85.730469 306.652344 85.871094 306.996094 C 86.015625 307.339844 86.191406 307.667969 86.398438 307.976562 C 86.605469 308.289062 86.839844 308.574219 87.101562 308.835938 C 87.367188 309.101562 87.652344 309.335938 87.960938 309.542969 C 88.273438 309.75 88.597656 309.925781 88.945312 310.066406 C 89.289062 310.210938 89.644531 310.316406 90.007812 310.390625 C 90.375 310.464844 90.742188 310.5 91.117188 310.5 L 284.089844 310.5 C 284.460938 310.5 284.832031 310.464844 285.195312 310.390625 C 285.5625 310.316406 285.917969 310.210938 286.261719 310.066406 C 286.605469 309.925781 286.933594 309.75 287.242188 309.542969 C 287.550781 309.335938 287.839844 309.101562 288.101562 308.835938 C 288.367188 308.574219 288.601562 308.289062 288.808594 307.976562 C 289.015625 307.667969 289.191406 307.339844 289.332031 306.996094 C 289.476562 306.652344 289.582031 306.296875 289.65625 305.929688 C 289.726562 305.566406 289.765625 305.195312 289.765625 304.824219 C 289.765625 304.453125 289.726562 304.082031 289.65625 303.71875 C 289.582031 303.351562 289.476562 302.996094 289.332031 302.652344 C 289.191406 302.308594 289.015625 301.980469 288.808594 301.671875 C 288.601562 301.359375 288.367188 301.074219 288.101562 300.8125 C 287.839844 300.546875 287.550781 300.3125 287.242188 300.105469 C 286.933594 299.898438 286.605469 299.722656 286.261719 299.582031 C 285.917969 299.4375 285.5625 299.332031 285.195312 299.257812 C 284.832031 299.183594 284.460938 299.148438 284.089844 299.148438 Z M 284.089844 299.148438 " fill-opacity="1" fill-rule="nonzero"/></g></svg>