<svg xmlns="http://www.w3.org/2000/svg" xmlns:xlink="http://www.w3.org/1999/xlink" width="500" zoomAndPan="magnify" viewBox="0 0 375 374.999991" height="500" preserveAspectRatio="xMidYMid meet" version="1.0"><defs><clipPath id="id1"><path d="M 121 81.53125 L 254 81.53125 L 254 281.78125 L 121 281.78125 Z M 121 81.53125 " clip-rule="nonzero"/></clipPath></defs><path fill="rgb(0%, 0%, 0%)" d="M 187.351562 374.699219 C 137.332031 374.699219 90.230469 355.230469 54.886719 319.8125 C 19.46875 284.46875 0 237.371094 0 187.351562 C 0 137.332031 19.46875 90.230469 54.886719 54.886719 C 90.230469 19.46875 137.332031 0 187.351562 0 C 237.371094 0 284.46875 19.46875 319.8125 54.886719 C 355.230469 90.304688 374.699219 137.332031 374.699219 187.351562 C 374.699219 237.371094 355.230469 284.46875 319.8125 319.8125 C 284.46875 355.230469 237.371094 374.699219 187.351562 374.699219 Z M 187.351562 11.230469 C 140.324219 11.230469 96.070312 29.578125 62.824219 62.824219 C 29.578125 96.070312 11.230469 140.324219 11.230469 187.351562 C 11.230469 234.375 29.578125 278.628906 62.824219 311.875 C 96.070312 345.121094 140.324219 363.46875 187.351562 363.46875 C 234.375 363.46875 278.628906 345.121094 311.875 311.875 C 345.121094 278.628906 363.46875 234.375 363.46875 187.351562 C 363.46875 140.324219 345.121094 96.070312 311.875 62.824219 C 278.628906 29.578125 234.375 11.230469 187.351562 11.230469 Z M 187.351562 11.230469 " fill-opacity="1" fill-rule="nonzero"/><path fill="rgb(0%, 0%, 0%)" d="M 229.023438 162.152344 C 190.808594 123.832031 187.363281 82.777344 187.363281 82.777344 C 187.363281 82.777344 183.917969 123.832031 145.699219 162.152344 C 107.488281 200.472656 113.839844 280.574219 187.363281 280.574219 C 260.882812 280.574219 267.238281 200.472656 229.023438 162.152344 " fill-opacity="1" fill-rule="nonzero"/><g clip-path="url(#id1)"><path fill="rgb(100%, 100%, 100%)" d="M 229.023438 162.152344 L 229.828125 161.34375 C 210.855469 142.316406 200.523438 122.621094 194.929688 107.691406 C 192.132812 100.226562 190.523438 93.953125 189.613281 89.558594 C 189.160156 87.359375 188.878906 85.628906 188.714844 84.453125 C 188.628906 83.867188 188.578125 83.417969 188.542969 83.121094 C 188.523438 82.96875 188.515625 82.855469 188.507812 82.78125 L 188.5 82.703125 L 188.5 82.679688 C 188.445312 82.089844 187.953125 81.632812 187.363281 81.632812 C 186.769531 81.632812 186.277344 82.089844 186.226562 82.679688 L 186.222656 82.703125 C 186.175781 83.246094 185.183594 93.554688 179.53125 108.394531 C 173.878906 123.238281 163.574219 142.613281 144.894531 161.34375 C 129.753906 176.535156 121.535156 198.109375 121.527344 218.839844 C 121.527344 235.042969 126.566406 250.769531 137.363281 262.460938 C 142.761719 268.304688 149.59375 273.128906 157.910156 276.480469 C 166.230469 279.832031 176.027344 281.714844 187.363281 281.714844 C 198.699219 281.714844 208.496094 279.832031 216.8125 276.480469 C 229.289062 271.453125 238.421875 263.109375 244.390625 252.992188 C 250.363281 242.871094 253.195312 230.996094 253.195312 218.839844 C 253.191406 198.109375 244.96875 176.535156 229.828125 161.34375 L 229.023438 162.152344 L 228.214844 162.957031 C 242.890625 177.664062 250.921875 198.710938 250.917969 218.839844 C 250.917969 234.578125 246.027344 249.71875 235.6875 260.910156 C 230.515625 266.503906 223.976562 271.128906 215.960938 274.359375 C 207.945312 277.589844 198.445312 279.429688 187.363281 279.429688 C 176.277344 279.429688 166.777344 277.589844 158.761719 274.359375 C 146.738281 269.507812 138.035156 261.539062 132.292969 251.828125 C 126.558594 242.117188 123.804688 230.640625 123.804688 218.839844 C 123.800781 198.710938 131.832031 177.664062 146.507812 162.957031 C 165.746094 143.667969 176.246094 123.675781 181.929688 108.496094 C 187.613281 93.316406 188.488281 82.953125 188.5 82.871094 L 187.363281 82.777344 L 186.226562 82.871094 C 186.234375 82.953125 187.113281 93.316406 192.796875 108.496094 C 198.480469 123.675781 208.976562 143.667969 228.214844 162.957031 L 229.023438 162.152344 " fill-opacity="1" fill-rule="nonzero"/></g><path fill="rgb(100%, 100%, 100%)" d="M 199.03125 251.539062 C 141.5 251.539062 136.523438 187.125 166.429688 156.308594 C 176.492188 145.941406 183.464844 135.328125 188.300781 125.796875 C 184.75 115.210938 184.167969 108.175781 184.167969 108.175781 C 184.167969 108.175781 181.476562 141.191406 151.566406 172.007812 C 121.664062 202.820312 126.632812 267.234375 184.167969 267.234375 C 206.425781 267.234375 220.789062 257.578125 228.335938 243.96875 C 220.746094 248.703125 211.050781 251.539062 199.03125 251.539062 " fill-opacity="1" fill-rule="nonzero"/></svg>