<svg xmlns="http://www.w3.org/2000/svg" xmlns:xlink="http://www.w3.org/1999/xlink" width="375" zoomAndPan="magnify" viewBox="0 0 375 374.999991" height="374.999991" preserveAspectRatio="xMidYMid meet" version="1.0"><path fill="rgb(0%, 0%, 0%)" d="M 187.351562 374.699219 C 137.332031 374.699219 90.230469 355.230469 54.886719 319.8125 C 19.46875 284.46875 0 237.371094 0 187.351562 C 0 137.332031 19.46875 90.230469 54.886719 54.886719 C 90.230469 19.46875 137.332031 0 187.351562 0 C 237.371094 0 284.46875 19.46875 319.8125 54.886719 C 355.230469 90.304688 374.699219 137.332031 374.699219 187.351562 C 374.699219 237.371094 355.230469 284.46875 319.8125 319.8125 C 284.46875 355.230469 237.371094 374.699219 187.351562 374.699219 Z M 187.351562 11.230469 C 140.324219 11.230469 96.070312 29.578125 62.824219 62.824219 C 29.578125 96.070312 11.230469 140.324219 11.230469 187.351562 C 11.230469 234.375 29.578125 278.628906 62.824219 311.875 C 96.070312 345.121094 140.324219 363.46875 187.351562 363.46875 C 234.375 363.46875 278.628906 345.121094 311.875 311.875 C 345.121094 278.628906 363.46875 234.375 363.46875 187.351562 C 363.46875 140.324219 345.121094 96.070312 311.875 62.824219 C 278.628906 29.578125 234.375 11.230469 187.351562 11.230469 Z M 187.351562 11.230469 " fill-opacity="1" fill-rule="nonzero"/><path fill="rgb(0%, 0%, 0%)" d="M 181.925781 66.1875 C 137.941406 69.703125 121.878906 91.835938 121.878906 113.003906 C 121.878906 128.121094 119.375 241.847656 119.375 256.96875 C 119.375 272.089844 134.285156 288.527344 154.984375 298.011719 C 185.121094 311.820312 260.550781 305.742188 259.875 255.363281 C 259.105469 197.800781 260.199219 120.378906 260.199219 120.378906 C 260.191406 82.863281 225.316406 62.722656 181.925781 66.1875 Z M 181.925781 66.1875 " fill-opacity="1" fill-rule="nonzero"/><path fill="rgb(100%, 100%, 100%)" d="M 135.90625 132.09375 C 163.03125 154.691406 207.582031 153.402344 233.828125 139.480469 C 259.023438 126.109375 261.15625 104.34375 244.539062 87.03125 C 230.378906 72.269531 196.503906 64.5 167.316406 71.148438 C 134.480469 78.632812 109.300781 109.929688 135.90625 132.09375 Z M 135.90625 132.09375 " fill-opacity="1" fill-rule="nonzero"/><path fill="rgb(100%, 100%, 100%)" d="M 143.109375 129.035156 C 166.660156 148.65625 203.371094 146.359375 228.117188 135.449219 C 250.773438 125.453125 253.460938 106.589844 237.417969 89.917969 C 225.109375 77.121094 195.71875 70.355469 170.375 76.128906 C 141.871094 82.617188 120.015625 109.792969 143.109375 129.035156 Z M 143.109375 129.035156 " fill-opacity="1" fill-rule="nonzero"/><path fill="rgb(0%, 0%, 0%)" d="M 122.902344 161.148438 C 114.097656 154.84375 99.035156 143.273438 95.472656 140.96875 C 89.640625 137.191406 76.875 153.382812 86.695312 166.242188 C 96.515625 179.101562 116.125 197.160156 120.863281 221.863281 C 125.609375 246.570312 122.902344 161.148438 122.902344 161.148438 Z M 122.902344 161.148438 " fill-opacity="1" fill-rule="nonzero"/><path fill="rgb(100%, 100%, 100%)" d="M 94.316406 144.289062 C 94.636719 144.371094 94.945312 144.507812 95.234375 144.695312 C 95.523438 144.882812 95.789062 145.117188 96.035156 145.398438 C 96.28125 145.679688 96.5 146.003906 96.6875 146.371094 C 96.878906 146.738281 97.039062 147.140625 97.171875 147.578125 C 97.300781 148.011719 97.394531 148.476562 97.460938 148.96875 C 97.523438 149.457031 97.550781 149.964844 97.546875 150.492188 C 97.542969 151.015625 97.5 151.550781 97.425781 152.089844 C 97.355469 152.628906 97.246094 153.164062 97.105469 153.699219 C 96.96875 154.230469 96.796875 154.753906 96.597656 155.257812 C 96.398438 155.765625 96.171875 156.25 95.917969 156.710938 C 95.667969 157.171875 95.394531 157.597656 95.097656 157.996094 C 94.800781 158.394531 94.492188 158.75 94.164062 159.066406 C 93.835938 159.386719 93.5 159.65625 93.15625 159.882812 C 92.808594 160.109375 92.460938 160.285156 92.109375 160.410156 C 91.757812 160.539062 91.40625 160.613281 91.0625 160.632812 C 90.71875 160.652344 90.386719 160.621094 90.0625 160.539062 C 89.742188 160.453125 89.433594 160.316406 89.144531 160.132812 C 88.855469 159.945312 88.589844 159.710938 88.34375 159.429688 C 88.097656 159.144531 87.882812 158.820312 87.691406 158.453125 C 87.5 158.089844 87.339844 157.6875 87.210938 157.25 C 87.078125 156.8125 86.984375 156.347656 86.921875 155.859375 C 86.855469 155.367188 86.828125 154.859375 86.832031 154.335938 C 86.839844 153.808594 86.878906 153.277344 86.953125 152.738281 C 87.027344 152.199219 87.132812 151.660156 87.273438 151.128906 C 87.410156 150.59375 87.582031 150.074219 87.78125 149.566406 C 87.980469 149.058594 88.207031 148.578125 88.460938 148.117188 C 88.710938 147.65625 88.988281 147.226562 89.28125 146.832031 C 89.578125 146.433594 89.886719 146.078125 90.214844 145.757812 C 90.542969 145.441406 90.878906 145.167969 91.226562 144.941406 C 91.570312 144.71875 91.921875 144.539062 92.273438 144.414062 C 92.625 144.289062 92.972656 144.214844 93.316406 144.195312 C 93.660156 144.171875 93.992188 144.203125 94.316406 144.289062 Z M 94.316406 144.289062 " fill-opacity="1" fill-rule="nonzero"/><path fill="rgb(0%, 0%, 0%)" d="M 191.472656 136.378906 C 175.292969 136.378906 158.992188 130.894531 151.09375 124.445312 C 145.277344 119.695312 142.289062 113.332031 142.902344 106.992188 C 143.390625 101.933594 146.421875 94.59375 158.085938 88.347656 C 174.832031 79.375 192.140625 76.71875 208.117188 80.65625 C 224.648438 84.714844 241.941406 97.617188 240.347656 109.628906 C 238.648438 122.351562 214.402344 133.367188 202.429688 135.464844 C 198.851562 136.089844 195.171875 136.378906 191.472656 136.378906 Z M 193.4375 86.085938 C 182.988281 86.085938 172.140625 88.988281 161.484375 94.695312 C 154.480469 98.445312 150.535156 102.941406 150.074219 107.691406 C 149.691406 111.59375 151.730469 115.671875 155.652344 118.875 C 164.171875 125.828125 184.515625 131.3125 201.199219 128.375 C 213.777344 126.171875 232.25 115.839844 233.214844 108.679688 C 234.136719 101.753906 220.601562 91.132812 206.402344 87.640625 C 202.175781 86.597656 197.84375 86.085938 193.4375 86.085938 Z M 193.4375 86.085938 " fill-opacity="1" fill-rule="nonzero"/><path fill="rgb(0%, 0%, 0%)" d="M 189.785156 120.804688 C 182.6875 120.804688 176.0625 119.078125 172.339844 116.03125 C 169.222656 113.484375 167.632812 110.023438 167.972656 106.527344 C 168.238281 103.792969 169.808594 99.863281 175.777344 96.660156 C 180.304688 94.234375 190.65625 92.019531 197.683594 92.746094 C 205.640625 93.542969 216.582031 99 216.324219 106.078125 C 215.898438 117.046875 204.472656 118.953125 196.90625 120.214844 C 194.539062 120.609375 192.132812 120.804688 189.785156 120.804688 Z M 194.734375 99.804688 C 189.042969 99.804688 181.886719 101.554688 179.167969 103.007812 C 176.742188 104.308594 175.265625 105.84375 175.136719 107.21875 C 175.035156 108.261719 175.691406 109.46875 176.890625 110.457031 C 179.785156 112.824219 187.613281 114.457031 195.71875 113.117188 C 205.839844 111.433594 208.972656 109.722656 209.117188 105.804688 C 208.835938 104.273438 203.027344 100.507812 196.964844 99.90625 C 196.257812 99.839844 195.511719 99.804688 194.734375 99.804688 Z M 194.734375 99.804688 " fill-opacity="1" fill-rule="nonzero"/><path fill="rgb(0%, 0%, 0%)" d="M 159.410156 299.019531 L 162.296875 253.808594 L 165.824219 301.265625 Z M 245.699219 287.160156 L 246.980469 234.25 L 250.507812 281.703125 Z M 245.699219 287.160156 " fill-opacity="1" fill-rule="nonzero"/><path fill="rgb(100%, 100%, 100%)" d="M 169.679688 217.257812 L 174.804688 184.234375 L 175.453125 220.144531 L 178.65625 254.125 Z M 207.527344 297.414062 L 206.246094 225.59375 L 212.335938 278.816406 Z M 227.410156 198.015625 L 228.375 152.484375 L 232.054688 178.203125 C 232.171875 179.003906 232.128906 179.816406 231.917969 180.601562 Z M 227.410156 198.015625 " fill-opacity="1" fill-rule="nonzero"/></svg>